<?xml version="1.0" ?><!DOCTYPE svg  PUBLIC '-//W3C//DTD SVG 1.1//EN'  'http://www.w3.org/Graphics/SVG/1.1/DTD/svg11.dtd'><svg enable-background="new 0 0 360 360" height="360px" id="Layer_1" version="1.1" viewBox="0 0 360 360" width="360px" xml:space="preserve" xmlns="http://www.w3.org/2000/svg" xmlns:xlink="http://www.w3.org/1999/xlink"><g><g><circle clip-rule="evenodd" cx="180" cy="180" fill="#F0732B" fill-rule="evenodd" r="180"/><g><g><path clip-rule="evenodd" d="M280.014,136.592c-1.938-1.123-2.601-3.605-1.479-5.544       c1.124-1.938,3.606-2.6,5.545-1.477c6.911,3.989,12.504,9.687,16.375,16.391c3.872,6.706,6.009,14.394,6.009,22.368       s-2.137,15.662-6.009,22.369c-3.871,6.703-9.464,12.4-16.375,16.391c-1.938,1.123-4.421,0.461-5.545-1.477       c-1.122-1.939-0.46-4.422,1.479-5.545c5.681-3.281,10.265-7.939,13.42-13.404s4.897-11.766,4.897-18.333       s-1.742-12.868-4.897-18.333C290.278,144.532,285.694,139.873,280.014,136.592z" fill="#ECF5F8" fill-rule="evenodd"/><path clip-rule="evenodd" d="M271.934,150.585c-1.938-1.122-2.6-3.605-1.477-5.544       c1.122-1.938,3.605-2.6,5.545-1.478c4.42,2.553,7.993,6.188,10.46,10.462c2.477,4.289,3.845,9.207,3.845,14.305       c0,5.098-1.368,10.015-3.845,14.304c-2.467,4.273-6.04,7.91-10.46,10.463c-1.939,1.121-4.423,0.461-5.545-1.479       c-1.123-1.938-0.462-4.42,1.477-5.543c3.173-1.832,5.737-4.441,7.507-7.507c1.761-3.049,2.732-6.568,2.732-10.238       c0-3.671-0.972-7.189-2.732-10.238C277.671,155.027,275.106,152.417,271.934,150.585z" fill="#ECF5F8" fill-rule="evenodd"/><path clip-rule="evenodd" d="M260.601,126.49c-19.295,13.022-37.568,18.18-57.396,20.873       l0.029,44.344c19.815,2.695,38.083,7.854,57.366,20.869C260.601,183.879,260.601,155.185,260.601,126.49L260.601,126.49z        M195.934,148.241c-9.922,1.067-20.291,1.699-31.41,2.534c-2.869,0.214-5.075,2.591-5.075,5.467v26.58       c0,2.877,2.206,5.254,5.075,5.469c1.864,0.141,3.709,0.273,5.534,0.406l1.12,9.102l5.655,5.867       c0.725,0.752,1.07,1.67,1.019,2.713l-1.455,30.027c-0.056,1.123,0.891,2.02,2.009,1.906l16.385-1.652       c0.943-0.094,1.653-0.889,1.644-1.838C196.108,205.883,195.934,177.189,195.934,148.241z" fill="#ECF5F8" fill-rule="evenodd"/><path clip-rule="evenodd" d="M203.227,180.035l0.008,11.672       c19.815,2.695,38.083,7.854,57.366,20.869v-29.385C243.051,181.217,223.647,180.096,203.227,180.035L203.227,180.035z        M159.448,181.588c11.635-0.885,23.886-1.411,36.555-1.53c0.016,3.596,0.035,7.192,0.056,10.786l-26.001-2.146       c-1.825-0.133-3.67-0.268-5.534-0.406c-2.869-0.215-5.074-2.592-5.075-5.469V181.588z" fill="#C3DCE1" fill-rule="evenodd"/><polygon clip-rule="evenodd" fill="#2F8AB0" fill-rule="evenodd" points="196.059,190.871 195.934,148.241 203.205,147.363        203.234,191.707      "/><path clip-rule="evenodd" d="M150.968,158.646c-2.81,0-5.109,2.299-5.109,5.108v11.557       c0,2.809,2.3,5.107,5.109,5.107c4.183,0,4.299,0,8.481,0v-21.772C155.267,158.646,155.15,158.646,150.968,158.646       L150.968,158.646z M266.972,160.286c7.432,1.065,7.43,15.341,0,16.407l-6.371,0.914v-18.235L266.972,160.286z" fill="#C3DCE1" fill-rule="evenodd"/><g><polygon clip-rule="evenodd" fill="#9FB9BD" fill-rule="evenodd" points="260.601,159.372 260.601,177.607 265.952,176.838         265.952,160.14       "/><rect clip-rule="evenodd" fill="#9FB9BD" fill-rule="evenodd" height="21.772" width="7.211" x="152.238" y="158.646"/><polygon clip-rule="evenodd" fill="#9FB9BD" fill-rule="evenodd" points="170.058,188.697 171.178,197.799 196.118,199.398         196.059,190.844       "/></g><path clip-rule="evenodd" d="M244.032,135.939v67.188c3.035,1.432,6.078,3.012,9.139,4.791       V168.19v-37.042C250.109,132.926,247.067,134.508,244.032,135.939z" fill="#2F8AB0" fill-rule="evenodd"/></g><g><path clip-rule="evenodd" d="M125.591,213.078c0.021,0.459-0.131,0.865-0.449,1.197       c-0.318,0.334-0.715,0.504-1.176,0.504H87.409c-0.462,0-0.857-0.17-1.176-0.504c-0.319-0.332-0.471-0.738-0.45-1.197       c0.55-12.115,2.108-15.066,13.923-18.043c1.313-0.342,1.592-2.879,0.758-3.779c-1.438-1.551-2.618-3.631-3.482-5.828       c-0.313,0.025-0.76-0.082-0.968-0.313c-1.21-1.357-2.343-1.697-1.7-3.998c0.17-0.616,0.734-0.646,1.301-0.502l-0.004-0.018       c-0.453-1.964-0.859-4.401-0.434-6.378c0.595-2.749,2.127-3.435,3.715-4.81c1.459-1.319,3.274-2.224,5.277-2.528       c0.916-0.162,2.113-0.162,3.027-0.002c2.67,0.405,3.891,1.431,5.867,3.008c1.37,1.096,2.615,1.919,3.137,4.332       c0.428,1.982,0.018,4.428-0.438,6.396c0.566-0.144,1.129-0.111,1.299,0.502c0.643,2.301-0.49,2.641-1.701,3.998       c-0.208,0.23-0.654,0.338-0.967,0.313c-0.865,2.197-2.045,4.277-3.482,5.828c-0.835,0.898-0.556,3.439,0.758,3.779       C123.482,198.012,125.04,200.963,125.591,213.078L125.591,213.078z" fill="#68BED4" fill-rule="evenodd"/><path clip-rule="evenodd" d="M97.705,212.797c0.024,0.535-0.151,1.008-0.523,1.396       c-0.371,0.389-0.834,0.586-1.371,0.586H53.178c-0.538,0-1-0.197-1.371-0.586c-0.372-0.389-0.548-0.861-0.524-1.396       c0.642-14.131,2.459-17.57,16.237-21.043c1.531-0.398,1.856-3.357,0.884-4.408c-1.677-1.807-3.054-4.232-4.063-6.795       c-0.365,0.029-0.885-0.096-1.128-0.366c-1.411-1.581-2.731-1.978-1.983-4.661c0.198-0.719,0.856-0.754,1.518-0.586       l-0.004-0.021c-0.529-2.291-1.003-5.134-0.506-7.438c0.693-3.206,2.48-4.005,4.332-5.608c1.701-1.539,3.818-2.594,6.154-2.949       c1.067-0.188,2.464-0.188,3.531-0.002c3.112,0.473,4.537,1.668,6.842,3.508c1.598,1.277,3.049,2.237,3.657,5.052       c0.499,2.313,0.021,5.164-0.51,7.459c0.66-0.168,1.316-0.131,1.515,0.586c0.75,2.684-0.572,3.08-1.984,4.661       c-0.242,0.271-0.763,0.396-1.127,0.366c-1.009,2.561-2.385,4.989-4.061,6.795c-0.975,1.049-0.648,4.012,0.883,4.408       C95.247,195.227,97.063,198.666,97.705,212.797L97.705,212.797z" fill="#A5DFF9" fill-rule="evenodd"/></g><g><path clip-rule="evenodd" d="M172.049,81.503c-3.962-5.707-6.515-12.867-6.778-20.504       c5.495,5.859,11.404,10.188,19.575,10.396c1.26-1.641,2.483-3.482,3.667-5.545c2.114-5.1,6.609-8.677,12.831-8.677       c6.224,0,12.258,4.795,13.613,11.194l8.114,2.789l-8.018,2.766c-5.274,29.915-42.271,31.133-61.982,9.473       C159.828,84.046,166.189,83.851,172.049,81.503L172.049,81.503z" fill="#68BED4" fill-rule="evenodd"/><path d="M223.071,71.158l-8.114-2.789c-1.355-6.4-7.39-11.194-13.613-11.194       c-6.222,0-10.717,3.577-12.831,8.677c-1.184,2.063-2.407,3.904-3.667,5.545c-8.171-0.209-14.08-4.537-19.575-10.396       c0.214,6.184,1.946,12.041,4.695,17.082c6.971,4.559,16.209,7.338,26.346,7.338c5.604,0,10.928-0.854,15.751-2.383       c1.356-2.676,2.39-5.699,2.991-9.113L223.071,71.158z" fill="#A5DFF9"/></g><g><path clip-rule="evenodd" d="M89.644,93.581c-2.174,0.346-4.217-1.138-4.563-3.313       c-0.345-2.174,1.139-4.217,3.313-4.563c1.1-0.174,2.125-0.299,3.07-0.373c1.055-0.084,2.086-0.125,3.088-0.125       c10.86,0,20.693,4.402,27.811,11.52s11.52,16.95,11.52,27.811c0,1.093-0.06,2.292-0.179,3.592       c-0.111,1.213-0.275,2.404-0.49,3.566c-0.397,2.165-2.476,3.6-4.642,3.202c-2.165-0.397-3.6-2.476-3.202-4.641       c0.178-0.962,0.311-1.912,0.396-2.847c0.078-0.848,0.117-1.807,0.117-2.873c0-8.652-3.506-16.484-9.176-22.154       c-5.67-5.669-13.502-9.176-22.154-9.176c-0.85,0-1.672,0.031-2.463,0.094C91.19,93.372,90.374,93.465,89.644,93.581       L89.644,93.581z" fill="#F3DF84" fill-rule="evenodd"/><path clip-rule="evenodd" d="M90.095,110.438c-2.123,0.586-4.32-0.658-4.906-2.781       s0.658-4.32,2.781-4.906c1.008-0.281,2.037-0.496,3.08-0.639c1.086-0.148,2.131-0.224,3.127-0.224       c6.375,0,12.147,2.585,16.325,6.763c4.179,4.178,6.763,9.949,6.763,16.324c0,1.181-0.104,2.408-0.307,3.669       c-0.193,1.203-0.489,2.404-0.883,3.591c-0.689,2.088-2.943,3.221-5.031,2.53s-3.221-2.942-2.531-5.03       c0.25-0.752,0.44-1.535,0.57-2.341c0.121-0.748,0.182-1.558,0.182-2.419c0-4.166-1.688-7.938-4.419-10.668       c-2.729-2.73-6.502-4.42-10.669-4.42c-0.742,0-1.433,0.045-2.065,0.131C91.435,110.112,90.761,110.251,90.095,110.438       L90.095,110.438z" fill="#F3DF84" fill-rule="evenodd"/><path clip-rule="evenodd" d="M92.795,135.083c4.3,0,7.786-3.486,7.786-7.787       s-3.486-7.787-7.786-7.787c-4.302,0-7.788,3.486-7.788,7.787S88.493,135.083,92.795,135.083L92.795,135.083z" fill="#FFBD0A" fill-rule="evenodd"/></g><g><path clip-rule="evenodd" d="M196.739,313.713l1.808,11.219       c0.227,1.867-2.104,3.098-3.603,1.652l-12.434-12.398c-14.108-1.615-21.847-11.916-20.928-21.813       c0.919-9.898,10.497-19.393,27.127-19.393c15.289,0,25.314,8.396,27.02,17.688       C217.435,299.957,210.823,310.141,196.739,313.713L196.739,313.713z" fill="#A5DFF9" fill-rule="evenodd"/><path clip-rule="evenodd" d="M207.913,278.801c13.119,25.406-17.127,31.857-17.127,31.857       l6.657,16.313c0.714-0.371,1.214-1.129,1.104-2.039l-1.808-11.219c14.084-3.572,20.695-13.756,18.99-23.045       C214.915,286.232,212.187,282.014,207.913,278.801z" fill="#68BED4" fill-rule="evenodd"/></g><g><path clip-rule="evenodd" d="M104.239,286.363c7,0.043,6.758,5.813,15.75,5.813       c3.486,0,12.639,0,12.639,0c2.654,0,5.852-0.914,6.766-3.799c0.639-2.02-0.047-2.639,0.375-3.965       c0.357-1.125,3.787-1.932,3.438-5.131c-0.15-1.387-1.154-3.4-0.658-4.686c0.57-1.477,2.197-2.801,2.197-4.533       c0-2.973-1.572-2.908-2.199-5.371c-0.324-1.285,1.486-3.211-0.506-6.455c-1.15-1.873-2.994-2.061-6.533-2.061       c0,0-7.307,0-8.412,0c-1.109,0-1.963-0.818-1.633-2.08c0.639-2.43,1.584-6.17,1.633-9.975c0.059-4.4-1.342-8.223-4.26-8.223       c-4.926,0-2.479,7.02-7.791,14.965c-3.48,5.207-8.805,7.303-10.805,7.939" fill="#FDD7B3" fill-rule="evenodd"/><path d="M132.466,273.393c4.297,0,8.365-0.744,12-2.068c0.17-0.4,0.279-0.818,0.279-1.264       c0-2.973-1.572-2.906-2.199-5.369c-0.324-1.285,1.486-3.211-0.506-6.455c-1.15-1.873-2.994-2.061-6.533-2.061       c0,0-7.307,0-8.412,0c-1.109,0-1.963-0.818-1.633-2.08c0.639-2.43,1.584-6.17,1.633-9.975c0.059-4.4-1.342-8.223-4.26-8.223       c-4.926,0-2.436,7.02-7.748,14.965c-2.822,4.223-6.83,6.396-9.311,7.408C109.229,267.021,119.87,273.393,132.466,273.393z" fill="#FFE8CE"/><polyline clip-rule="evenodd" fill="#3677A3" fill-rule="evenodd" points="103.687,254.176 82.687,254.176 82.687,289.176        103.687,289.176      "/><circle clip-rule="evenodd" cx="97.739" cy="282.766" fill="#FFFFFF" fill-rule="evenodd" r="3"/></g></g></g></g></svg>